<svg width="14" height="14" fill="none" xmlns="http://www.w3.org/2000/svg"><path fill-rule="evenodd" clip-rule="evenodd" d="M7 .884c-1.737 0-1.956.008-2.638.039-.682.031-1.147.139-1.554.297-.42.164-.778.382-1.133.738a3.142 3.142 0 00-.739 1.134c-.159.407-.267.872-.297 1.553-.03.683-.039.901-.039 2.64 0 1.736.008 1.955.04 2.637.031.681.139 1.146.297 1.553.164.42.382.778.738 1.134.356.356.713.575 1.134.738.407.159.872.266 1.553.298.683.03.9.038 2.639.038 1.738 0 1.956-.007 2.638-.038.682-.032 1.147-.14 1.555-.298.42-.163.777-.382 1.132-.738a3.16 3.16 0 00.74-1.134c.156-.407.264-.872.296-1.553.031-.683.04-.9.04-2.639 0-1.738-.009-1.956-.04-2.639-.032-.681-.14-1.146-.297-1.553a3.141 3.141 0 00-.739-1.134 3.128 3.128 0 00-1.133-.738c-.408-.158-.873-.266-1.555-.297C8.955.892 8.737.884 7 .884zm-.573 1.154H7c1.708 0 1.911.006 2.586.036.624.029.963.133 1.188.22.299.117.512.255.736.48.224.223.362.437.479.735.087.226.191.564.22 1.188.03.675.037.878.037 2.586 0 1.708-.006 1.91-.037 2.585-.029.624-.133.963-.22 1.188a1.978 1.978 0 01-.48.735 1.98 1.98 0 01-.735.48c-.225.087-.564.191-1.188.22-.675.03-.878.037-2.586.037-1.71 0-1.912-.007-2.586-.037-.624-.03-.963-.133-1.189-.221a1.982 1.982 0 01-.736-.479 1.984 1.984 0 01-.479-.735c-.087-.226-.192-.564-.22-1.188-.03-.675-.037-.878-.037-2.587s.006-1.91.037-2.585c.028-.624.133-.963.22-1.188a1.97 1.97 0 01.48-.736c.223-.224.436-.363.735-.48.226-.087.565-.191 1.189-.22.59-.027.819-.035 2.012-.036v.002zm3.99 1.062a.768.768 0 100 1.536.768.768 0 000-1.536zm-3.416.898a3.287 3.287 0 100 6.573 3.287 3.287 0 000-6.573zM7 5.15a2.133 2.133 0 110 4.267A2.133 2.133 0 017 5.15z" fill="#fff"/></svg>