<svg width="12" height="11" fill="none" xmlns="http://www.w3.org/2000/svg"><path fill-rule="evenodd" clip-rule="evenodd" d="M5.64 3.038l.026.415-.42-.05c-1.528-.196-2.862-.857-3.995-1.967L.697.886l-.143.406c-.302.907-.11 1.865.52 2.509.336.355.26.406-.319.194-.201-.067-.377-.118-.394-.093-.059.06.143.83.302 1.136.218.423.663.839 1.15 1.084l.411.195-.486.009c-.47 0-.487.008-.437.186.168.551.831 1.136 1.57 1.39l.52.178-.453.271c-.672.39-1.46.61-2.25.627-.377.009-.688.043-.688.068 0 .085 1.024.56 1.62.746 1.788.55 3.911.313 5.506-.627 1.133-.67 2.267-2 2.795-3.288.286-.687.571-1.94.571-2.543 0-.39.025-.44.495-.906.277-.271.538-.568.588-.653.084-.16.075-.16-.353-.017-.713.255-.814.22-.461-.16.26-.272.57-.763.57-.907 0-.026-.125.017-.268.093a4.685 4.685 0 01-.739.288l-.453.144-.411-.28C9.233.784 8.914.614 8.746.563 8.318.445 7.663.462 7.277.597 6.228.98 5.565 1.962 5.641 3.037z" fill="#fff"/></svg>