<svg width="14" height="14" fill="none" xmlns="http://www.w3.org/2000/svg"><path fill-rule="evenodd" clip-rule="evenodd" d="M13.4 7.275a6.406 6.406 0 01-.504 2.488 6.437 6.437 0 01-2.318 2.811 6.47 6.47 0 01-1.087.59 6.423 6.423 0 01-6.07-.59 6.446 6.446 0 01-2.318-2.811A6.369 6.369 0 01.73 5.989a6.355 6.355 0 01.963-2.287 6.452 6.452 0 011.728-1.725 6.337 6.337 0 012.29-.962 6.45 6.45 0 013.78.371 6.419 6.419 0 012.815 2.316A6.33 6.33 0 0113.4 7.276zM4.668 2.34A5.466 5.466 0 001.65 6.15c.144.001 2.422.03 5.046-.666a32.864 32.864 0 00-2.03-3.145zM7.15 6.324c-2.814.842-5.515.781-5.611.777-.002.059-.005.116-.005.174 0 1.402.53 2.68 1.4 3.647-.001-.003 1.494-2.652 4.444-3.605.071-.023.144-.045.216-.065a19.14 19.14 0 00-.444-.928zm3.46-3.145A5.444 5.444 0 007 1.818c-.444 0-.875.054-1.288.153.082.11 1.108 1.47 2.043 3.184 2.062-.772 2.84-1.956 2.854-1.976zM7.965 8.156l-.036.012c-3.225 1.123-4.278 3.385-4.29 3.41a5.459 5.459 0 005.494.722 22.694 22.694 0 00-1.168-4.144zm2.088 3.646a5.46 5.46 0 002.342-3.662 7.94 7.94 0 00-3.406-.237 23.595 23.595 0 011.064 3.899zM8.176 5.968a17.209 17.209 0 01.481 1.074c1.878-.236 3.727.161 3.806.177a5.425 5.425 0 00-1.242-3.41c-.01.014-.887 1.279-3.045 2.159z" fill="#fff"/></svg>